<svg width="700" height="200" xmlns="http://www.w3.org/2000/svg">
    <rect width="100%" height="100%" fill="#f0f2f6"/>
    <rect x="10" y="80" width="100" height="50" rx="10" fill="#0068c9" opacity="0.8"/>
    <text x="60" y="110" font-family="Arial" font-size="12" text-anchor="middle" fill="white">Data Loading</text>
    <rect x="130" y="80" width="100" height="50" rx="10" fill="#0068c9" opacity="0.8"/>
    <text x="180" y="110" font-family="Arial" font-size="12" text-anchor="middle" fill="white">Preprocessing</text>
    <rect x="250" y="80" width="100" height="50" rx="10" fill="#0068c9" opacity="0.8"/>
    <text x="300" y="110" font-family="Arial" font-size="12" text-anchor="middle" fill="white">Feature Engineering</text>
    <rect x="370" y="80" width="100" height="50" rx="10" fill="#0068c9" opacity="0.8"/>
    <text x="420" y="110" font-family="Arial" font-size="12" text-anchor="middle" fill="white">Model Training</text>
    <rect x="490" y="80" width="100" height="50" rx="10" fill="#0068c9" opacity="0.8"/>
    <text x="540" y="110" font-family="Arial" font-size="12" text-anchor="middle" fill="white">Evaluation</text>
    <rect x="610" y="80" width="80" height="50" rx="10" fill="#0068c9" opacity="0.8"/>
    <text x="650" y="110" font-family="Arial" font-size="12" text-anchor="middle" fill="white">Results</text>
    <path d="M110,105 L130,105" stroke="#262730" stroke-width="2" marker-end="url(#arrow)"/>
    <path d="M230,105 L250,105" stroke="#262730" stroke-width="2" marker-end="url(#arrow)"/>
    <path d="M350,105 L370,105" stroke="#262730" stroke-width="2" marker-end="url(#arrow)"/>
    <path d="M470,105 L490,105" stroke="#262730" stroke-width="2" marker-end="url(#arrow)"/>
    <path d="M590,105 L610,105" stroke="#262730" stroke-width="2" marker-end="url(#arrow)"/>
    <defs>
        <marker id="arrow" markerWidth="10" markerHeight="10" refX="9" refY="3" orient="auto">
            <path d="M0,0 L0,6 L9,3 Z" fill="#262730"/>
        </marker>
    </defs>
</svg>
