<svg width="400" height="250" xmlns="http://www.w3.org/2000/svg">
    <rect width="100%" height="100%" fill="#f0f2f6"/>
    <text x="50%" y="30%" font-family="Arial" font-size="24" text-anchor="middle" fill="#0068c9">Financial ML Pipeline</text>
    <path d="M50,180 L350,180" stroke="#262730" stroke-width="2"/>
    <path d="M50,120 L350,120" stroke="#dfe4ec" stroke-width="1" stroke-dasharray="5,5"/>
    <path d="M50,150 L350,150" stroke="#dfe4ec" stroke-width="1" stroke-dasharray="5,5"/>
    <path d="M50,90 L350,90" stroke="#dfe4ec" stroke-width="1" stroke-dasharray="5,5"/>
    <path d="M50,60 L350,60" stroke="#dfe4ec" stroke-width="1" stroke-dasharray="5,5"/>
    <path d="M50,180 L50,50" stroke="#262730" stroke-width="2"/>
    <path d="M50,180 L100,130 L150,160 L200,80 L250,120 L300,70 L350,100" stroke="#0068c9" stroke-width="3" fill="none"/>
    <circle cx="100" cy="130" r="4" fill="#0068c9"/>
    <circle cx="150" cy="160" r="4" fill="#0068c9"/>
    <circle cx="200" cy="80" r="4" fill="#0068c9"/>
    <circle cx="250" cy="120" r="4" fill="#0068c9"/>
    <circle cx="300" cy="70" r="4" fill="#0068c9"/>
    <circle cx="350" cy="100" r="4" fill="#0068c9"/>
</svg>
